# xmcd CD database file
#
# Track frame offsets:
#	182
#	11278
#	24790
#	36918
#	49947
#	63737
#	76718
#	89184
#	100556
#	104942
#	116613
#	131136
#	141311
#	153528
#	165183
#	176616
#	186800
#	198407
#	210829
#	222645
#
# Disc length: 3125 seconds
#
# Revision: 0
# Processed by: cddbd v1.4PL0 Copyright (c) Steve Scherf et al.
# Submitted via: CDex 1.50Beta7
#
DISCID=180c3314
DTITLE=Big Joe Turner - 1947-48
DYEAR=1948
DGENRE=Blues
TTITLE0=Nobody In Mind
TTITLE1=Lucille, Lucille
TTITLE2=Rocks In My Bed
TTITLE3=Careless Love
TTITLE4=Last Goodbye Blues
TTITLE5=Whistle Stop Blues
TTITLE6=Hollywood Red (Cherry Red Blues)
TTITLE7=Howlin' Winds
TTITLE8=Roll 'Em Boys (I Got A Gal)
TTITLE9=Kansas City Blues
TTITLE10=Riding Blues (Jockey Blues)
TTITLE11=Playful Baby
TTITLE12=Radar Blues
TTITLE13=Trouble Blues
TTITLE14=Wine-O-Baby
TTITLE15=B&O Blues
TTITLE16=Christmas Date Boogie
TTITLE17=Tell Me Pretty Baby
TTITLE18=Old Piney Brown's Gone
TTITLE19=Baby, Won't You Marry Me
EXTD=YEAR: 1948
EXTT0=
EXTT1=
EXTT2=
EXTT3=
EXTT4=
EXTT5=
EXTT6=
EXTT7=
EXTT8=
EXTT9=
EXTT10=
EXTT11=
EXTT12=
EXTT13=
EXTT14=
EXTT15=
EXTT16=
EXTT17=
EXTT18=
EXTT19=
PLAYORDER=
